<?xml version="1.0" encoding="utf-8"?>
<!-- Generator: Adobe Illustrator 21.1.0, SVG Export Plug-In . SVG Version: 6.00 Build 0)  -->
<svg version="1.1" id="Capa_1" xmlns="http://www.w3.org/2000/svg" xmlns:xlink="http://www.w3.org/1999/xlink" x="0px" y="0px"
	 viewBox="0 0 56 56" style="enable-background:new 0 0 56 56;" xml:space="preserve">
<style type="text/css">
	.st0{fill:#E9E9E0;}
	.st1{fill:#D9D7CA;}
	.st2{fill:#556080;}
	.st3{fill:#C8BDB8;}
	.st4{enable-background:new    ;}
	.st5{fill:#FFFFFF;}
</style>
<path class="st0" d="M37,0H8C7.2,0,6.5,0.7,6.5,1.9V55c0,0.3,0.7,1,1.5,1H48c0.8,0,1.5-0.7,1.5-1V13c0-0.7-0.1-0.9-0.3-1.1L37.6,0.3
	C37.4,0.1,37.2,0,37,0z"/>
<polygon class="st1" points="37.5,0.2 37.5,12 49.3,12 "/>
<path class="st2" d="M48,56H8c-0.8,0-1.5-0.7-1.5-1.5V39h43v15.5C49.5,55.3,48.8,56,48,56z"/>
<g>
	<path class="st3" d="M28.5,24v-2h2v-2h-2v-2h2v-2h-2v-2h2v-2h-2v-2h2V8h-2V6h-2v2h-2v2h2v2h-2v2h2v2h-2v2h2v2h-2v2h2v2h-4v5
		c0,2.8,2.2,5,5,5s5-2.2,5-5v-5H28.5z M30.5,29c0,1.7-1.3,3-3,3s-3-1.3-3-3v-3h6V29z"/>
	<path class="st3" d="M26.5,30h2c0.6,0,1-0.4,1-1s-0.4-1-1-1h-2c-0.6,0-1,0.4-1,1S25.9,30,26.5,30z"/>
</g>
<g class="st4">
	<path class="st5" d="M17.6,51.4l4.8-6.9v-0.1H18v-1.9h7.3v1.3l-4.7,6.8v0.1h4.8v1.9h-7.9V51.4z"/>
	<path class="st5" d="M29.2,42.5v10.1h-2.3V42.5H29.2z"/>
	<path class="st5" d="M31.2,42.6c0.7-0.1,1.7-0.2,3.1-0.2c1.4,0,2.4,0.3,3.1,0.8c0.6,0.5,1.1,1.4,1.1,2.3c0,1-0.3,1.8-0.9,2.4
		c-0.8,0.7-1.9,1.1-3.3,1.1c-0.3,0-0.6,0-0.8,0v3.6h-2.3V42.6z M33.4,47.2c0.2,0,0.4,0.1,0.8,0.1c1.2,0,2-0.6,2-1.6
		c0-0.9-0.6-1.5-1.8-1.5c-0.5,0-0.8,0-0.9,0.1V47.2z"/>
</g>
</svg>
