<?xml version="1.0" encoding="utf-8"?>
<!-- Generator: Adobe Illustrator 22.0.1, SVG Export Plug-In . SVG Version: 6.00 Build 0)  -->
<svg version="1.1" id="Capa_1" xmlns="http://www.w3.org/2000/svg" xmlns:xlink="http://www.w3.org/1999/xlink" x="0px" y="0px"
	 viewBox="0 0 56 56" style="enable-background:new 0 0 56 56;" xml:space="preserve">
<style type="text/css">
	.st0{fill:#E9E9E0;}
	.st1{fill:#D9D7CA;}
	.st2{fill:#EC6630;}
	.st3{enable-background:new    ;}
	.st4{fill:#FFFFFF;}
</style>
<path class="st0" d="M37,0H8C7.2,0,6.5,0.7,6.5,1.9V55c0,0.3,0.7,1,1.5,1H48c0.8,0,1.5-0.7,1.5-1V13c0-0.7-0.1-0.9-0.3-1.1L37.6,0.3
	C37.4,0.1,37.2,0,37,0z"/>
<polygon class="st1" points="37.5,0.2 37.5,12 49.3,12 "/>
<path class="st2" d="M48,56H8c-0.8,0-1.5-0.7-1.5-1.5V39h43v15.5C49.5,55.3,48.8,56,48,56z"/>
<g>
	<path class="st2" d="M23.2,16.3c-0.4-0.4-1-0.4-1.4,0l-6,6c-0.4,0.4-0.4,1,0,1.4l6,6c0.2,0.2,0.5,0.3,0.7,0.3s0.5-0.1,0.7-0.3
		c0.4-0.4,0.4-1,0-1.4L17.9,23l5.3-5.3C23.6,17.3,23.6,16.7,23.2,16.3z"/>
	<path class="st2" d="M41.2,22.3l-6-6c-0.4-0.4-1-0.4-1.4,0c-0.4,0.4-0.4,1,0,1.4l5.3,5.3l-5.3,5.3c-0.4,0.4-0.4,1,0,1.4
		c0.2,0.2,0.5,0.3,0.7,0.3s0.5-0.1,0.7-0.3l6-6C41.6,23.3,41.6,22.7,41.2,22.3z"/>
</g>
<g class="st3">
	<path class="st4" d="M12.9,43.1v3.6h3.5v-3.6h2.1v9.4h-2.1v-4h-3.5v4h-2.1v-9.4H12.9z"/>
	<path class="st4" d="M22.3,44.8h-2.5v-1.8H27v1.8h-2.6v7.6h-2.1V44.8z"/>
	<path class="st4" d="M36,48.9c0-1.1-0.1-2.5-0.1-3.9h0c-0.3,1.2-0.7,2.5-1,3.7l-1.1,3.7H32l-1-3.7c-0.3-1.1-0.6-2.5-0.9-3.7h0
		c-0.1,1.3-0.1,2.7-0.2,3.9l-0.2,3.6h-2l0.6-9.4h2.8l0.9,3.2c0.3,1.1,0.6,2.3,0.8,3.4h0c0.3-1.1,0.6-2.3,0.9-3.4l1-3.1h2.8l0.5,9.4
		h-2.1L36,48.9z"/>
	<path class="st4" d="M39.9,43.1H42v7.6h3.8v1.8h-5.9V43.1z"/>
</g>
</svg>
